<svg width="246" height="319" viewBox="0 0 246 319" fill="none" xmlns="http://www.w3.org/2000/svg">
<rect x="34.737" y="0.554568" width="212" height="295" rx="21.5" transform="rotate(6.65396 34.737 0.554568)" stroke="white"/>
<rect x="48.6346" y="23.8215" width="48" height="5" rx="2.5" transform="rotate(6.65396 48.6346 23.8215)" fill="white"/>
<rect opacity="0.5" x="70.7348" y="41.5015" width="149" height="2" rx="1" transform="rotate(6.65396 70.7348 41.5015)" fill="white"/>
<rect opacity="0.5" x="70.0396" y="47.4609" width="108" height="2" rx="1" transform="rotate(6.65396 70.0396 47.4609)" fill="white"/>
<rect opacity="0.5" x="69.3444" y="53.4207" width="124" height="2" rx="1" transform="rotate(6.65396 69.3444 53.4207)" fill="white"/>
<rect x="47.4511" y="38.2819" width="15" height="15" rx="2.5" transform="rotate(6.65396 47.4511 38.2819)" stroke="white"/>
<path d="M50.0584 46.1368L52.8893 49.4874L58.3522 44.084" stroke="white" stroke-linecap="round"/>
<path d="M44.2648 95.8001L47.0956 99.1507L52.5585 93.7473" stroke="white" stroke-linecap="round"/>
<rect x="42.8409" y="73.4849" width="48" height="5" rx="2.5" transform="rotate(6.65396 42.8409 73.4849)" fill="white"/>
<rect opacity="0.5" x="64.9412" y="91.1648" width="149" height="2" rx="1" transform="rotate(6.65396 64.9412 91.1648)" fill="white"/>
<rect opacity="0.5" x="64.2459" y="97.1243" width="108" height="2" rx="1" transform="rotate(6.65396 64.2459 97.1243)" fill="white"/>
<rect opacity="0.5" x="63.5507" y="103.084" width="124" height="2" rx="1" transform="rotate(6.65396 63.5507 103.084)" fill="white"/>
<rect x="41.6574" y="87.9452" width="15" height="15" rx="2.5" transform="rotate(6.65396 41.6574 87.9452)" stroke="white"/>
<rect x="37.0473" y="123.148" width="48" height="5" rx="2.5" transform="rotate(6.65396 37.0473 123.148)" fill="white"/>
<rect opacity="0.5" x="59.1475" y="140.828" width="149" height="2" rx="1" transform="rotate(6.65396 59.1475 140.828)" fill="white"/>
<rect opacity="0.5" x="58.4523" y="146.787" width="108" height="2" rx="1" transform="rotate(6.65396 58.4523 146.787)" fill="white"/>
<rect opacity="0.5" x="57.7571" y="152.747" width="124" height="2" rx="1" transform="rotate(6.65396 57.7571 152.747)" fill="white"/>
<rect x="35.8638" y="137.608" width="15" height="15" rx="2.5" transform="rotate(6.65396 35.8638 137.608)" stroke="white"/>
<rect x="31.2537" y="172.811" width="48" height="5" rx="2.5" transform="rotate(6.65396 31.2537 172.811)" fill="white"/>
<rect opacity="0.5" x="53.3539" y="190.491" width="149" height="2" rx="1" transform="rotate(6.65396 53.3539 190.491)" fill="white"/>
<rect opacity="0.5" x="52.6586" y="196.451" width="108" height="2" rx="1" transform="rotate(6.65396 52.6586 196.451)" fill="white"/>
<rect opacity="0.5" x="51.9634" y="202.41" width="124" height="2" rx="1" transform="rotate(6.65396 51.9634 202.41)" fill="white"/>
<rect x="30.0702" y="187.272" width="15" height="15" rx="2.5" transform="rotate(6.65396 30.0702 187.272)" stroke="white"/>
<rect x="25.46" y="222.474" width="48" height="5" rx="2.5" transform="rotate(6.65396 25.46 222.474)" fill="white"/>
<rect opacity="0.5" x="47.5603" y="240.154" width="149" height="2" rx="1" transform="rotate(6.65396 47.5603 240.154)" fill="white"/>
<rect opacity="0.5" x="46.8651" y="246.114" width="108" height="2" rx="1" transform="rotate(6.65396 46.8651 246.114)" fill="white"/>
<rect opacity="0.5" x="46.1698" y="252.073" width="124" height="2" rx="1" transform="rotate(6.65396 46.1698 252.073)" fill="white"/>
<rect x="24.2765" y="236.935" width="15" height="15" rx="2.5" transform="rotate(6.65396 24.2765 236.935)" stroke="white"/>
</svg>
