<svg width="375" height="403" viewBox="0 0 375 403" fill="none" xmlns="http://www.w3.org/2000/svg">
<rect x="166.52" y="0.590786" width="212" height="295" rx="21.5" transform="rotate(11.6676 166.52 0.590786)" stroke="white"/>
<path opacity="0.5" d="M267.887 36.3291L213.688 298.791" stroke="white"/>
<path opacity="0.5" d="M348.556 120.38L160.523 81.5509" stroke="white"/>
<path opacity="0.5" d="M335.006 185.995L146.973 147.166" stroke="white"/>
<path opacity="0.5" d="M321.456 251.611L133.424 212.782" stroke="white"/>
<rect x="178.331" y="24.9834" width="48" height="5" rx="2.5" transform="rotate(11.6676 178.331 24.9834)" fill="white"/>
<rect opacity="0.5" x="175.297" y="39.6733" width="67" height="2" rx="1" transform="rotate(11.6676 175.297 39.6733)" fill="white"/>
<rect opacity="0.5" x="174.084" y="45.5493" width="67" height="2" rx="1" transform="rotate(11.6676 174.084 45.5493)" fill="white"/>
<rect opacity="0.5" x="172.87" y="51.4253" width="67" height="2" rx="1" transform="rotate(11.6676 172.87 51.4253)" fill="white"/>
<rect opacity="0.5" x="171.657" y="57.3015" width="67" height="2" rx="1" transform="rotate(11.6676 171.657 57.3015)" fill="white"/>
<rect opacity="0.5" x="170.444" y="63.1775" width="67" height="2" rx="1" transform="rotate(11.6676 170.444 63.1775)" fill="white"/>
<rect opacity="0.5" x="169.23" y="69.0535" width="67" height="2" rx="1" transform="rotate(11.6676 169.23 69.0535)" fill="white"/>
<rect opacity="0.5" x="161.545" y="106.268" width="67" height="2" rx="1" transform="rotate(11.6676 161.545 106.268)" fill="white"/>
<rect opacity="0.5" x="160.332" y="112.144" width="67" height="2" rx="1" transform="rotate(11.6676 160.332 112.144)" fill="white"/>
<rect opacity="0.5" x="159.119" y="118.02" width="67" height="2" rx="1" transform="rotate(11.6676 159.119 118.02)" fill="white"/>
<rect opacity="0.5" x="157.905" y="123.896" width="67" height="2" rx="1" transform="rotate(11.6676 157.905 123.896)" fill="white"/>
<rect opacity="0.5" x="156.692" y="129.772" width="67" height="2" rx="1" transform="rotate(11.6676 156.692 129.772)" fill="white"/>
<rect opacity="0.5" x="155.478" y="135.648" width="67" height="2" rx="1" transform="rotate(11.6676 155.478 135.648)" fill="white"/>
<rect opacity="0.5" x="147.996" y="171.884" width="67" height="2" rx="1" transform="rotate(11.6676 147.996 171.884)" fill="white"/>
<rect opacity="0.5" x="146.782" y="177.76" width="67" height="2" rx="1" transform="rotate(11.6676 146.782 177.76)" fill="white"/>
<rect opacity="0.5" x="145.569" y="183.636" width="67" height="2" rx="1" transform="rotate(11.6676 145.569 183.636)" fill="white"/>
<rect opacity="0.5" x="144.355" y="189.512" width="67" height="2" rx="1" transform="rotate(11.6676 144.355 189.512)" fill="white"/>
<rect opacity="0.5" x="143.142" y="195.388" width="67" height="2" rx="1" transform="rotate(11.6676 143.142 195.388)" fill="white"/>
<rect opacity="0.5" x="141.929" y="201.264" width="67" height="2" rx="1" transform="rotate(11.6676 141.929 201.264)" fill="white"/>
<rect opacity="0.5" x="134.446" y="237.5" width="67" height="2" rx="1" transform="rotate(11.6676 134.446 237.5)" fill="white"/>
<rect opacity="0.5" x="133.233" y="243.375" width="67" height="2" rx="1" transform="rotate(11.6676 133.233 243.375)" fill="white"/>
<rect opacity="0.5" x="132.019" y="249.251" width="67" height="2" rx="1" transform="rotate(11.6676 132.019 249.251)" fill="white"/>
<rect opacity="0.5" x="130.806" y="255.128" width="67" height="2" rx="1" transform="rotate(11.6676 130.806 255.128)" fill="white"/>
<rect opacity="0.5" x="129.592" y="261.004" width="67" height="2" rx="1" transform="rotate(11.6676 129.592 261.004)" fill="white"/>
<rect opacity="0.5" x="128.379" y="266.88" width="67" height="2" rx="1" transform="rotate(11.6676 128.379 266.88)" fill="white"/>
<rect opacity="0.5" x="275.19" y="60.3013" width="67" height="2" rx="1" transform="rotate(11.6676 275.19 60.3013)" fill="white"/>
<rect opacity="0.5" x="273.976" y="66.1772" width="67" height="2" rx="1" transform="rotate(11.6676 273.976 66.1772)" fill="white"/>
<rect opacity="0.5" x="272.763" y="72.0532" width="67" height="2" rx="1" transform="rotate(11.6676 272.763 72.0532)" fill="white"/>
<rect opacity="0.5" x="271.549" y="77.9294" width="67" height="2" rx="1" transform="rotate(11.6676 271.549 77.9294)" fill="white"/>
<rect opacity="0.5" x="270.336" y="83.8054" width="67" height="2" rx="1" transform="rotate(11.6676 270.336 83.8054)" fill="white"/>
<rect opacity="0.5" x="269.123" y="89.6814" width="67" height="2" rx="1" transform="rotate(11.6676 269.123 89.6814)" fill="white"/>
<rect opacity="0.5" x="261.438" y="126.896" width="67" height="2" rx="1" transform="rotate(11.6676 261.438 126.896)" fill="white"/>
<rect opacity="0.5" x="260.224" y="132.772" width="67" height="2" rx="1" transform="rotate(11.6676 260.224 132.772)" fill="white"/>
<rect opacity="0.5" x="259.011" y="138.648" width="67" height="2" rx="1" transform="rotate(11.6676 259.011 138.648)" fill="white"/>
<rect opacity="0.5" x="257.798" y="144.524" width="67" height="2" rx="1" transform="rotate(11.6676 257.798 144.524)" fill="white"/>
<rect opacity="0.5" x="256.584" y="150.4" width="67" height="2" rx="1" transform="rotate(11.6676 256.584 150.4)" fill="white"/>
<rect opacity="0.5" x="255.371" y="156.276" width="67" height="2" rx="1" transform="rotate(11.6676 255.371 156.276)" fill="white"/>
<rect opacity="0.5" x="247.888" y="192.512" width="67" height="2" rx="1" transform="rotate(11.6676 247.888 192.512)" fill="white"/>
<rect opacity="0.5" x="246.675" y="198.388" width="67" height="2" rx="1" transform="rotate(11.6676 246.675 198.388)" fill="white"/>
<rect opacity="0.5" x="245.461" y="204.264" width="67" height="2" rx="1" transform="rotate(11.6676 245.461 204.264)" fill="white"/>
<rect opacity="0.5" x="244.248" y="210.14" width="67" height="2" rx="1" transform="rotate(11.6676 244.248 210.14)" fill="white"/>
<rect opacity="0.5" x="243.034" y="216.016" width="67" height="2" rx="1" transform="rotate(11.6676 243.034 216.016)" fill="white"/>
<rect opacity="0.5" x="241.821" y="221.892" width="67" height="2" rx="1" transform="rotate(11.6676 241.821 221.892)" fill="white"/>
<rect opacity="0.5" x="234.338" y="258.127" width="67" height="2" rx="1" transform="rotate(11.6676 234.338 258.127)" fill="white"/>
<rect opacity="0.5" x="233.125" y="264.003" width="67" height="2" rx="1" transform="rotate(11.6676 233.125 264.003)" fill="white"/>
<rect opacity="0.5" x="231.912" y="269.879" width="67" height="2" rx="1" transform="rotate(11.6676 231.912 269.879)" fill="white"/>
<rect opacity="0.5" x="230.698" y="275.756" width="67" height="2" rx="1" transform="rotate(11.6676 230.698 275.756)" fill="white"/>
<rect opacity="0.5" x="229.485" y="281.632" width="67" height="2" rx="1" transform="rotate(11.6676 229.485 281.632)" fill="white"/>
<rect opacity="0.5" x="228.271" y="287.508" width="67" height="2" rx="1" transform="rotate(11.6676 228.271 287.508)" fill="white"/>
<rect x="164.579" y="91.5784" width="48" height="5" rx="2.5" transform="rotate(11.6676 164.579 91.5784)" fill="white"/>
<rect x="151.029" y="157.194" width="48" height="5" rx="2.5" transform="rotate(11.6676 151.029 157.194)" fill="white"/>
<rect x="137.479" y="222.81" width="48" height="5" rx="2.5" transform="rotate(11.6676 137.479 222.81)" fill="white"/>
<rect x="278.223" y="45.6113" width="48" height="5" rx="2.5" transform="rotate(11.6676 278.223 45.6113)" fill="white"/>
<rect x="264.471" y="112.206" width="48" height="5" rx="2.5" transform="rotate(11.6676 264.471 112.206)" fill="white"/>
<rect x="250.922" y="177.822" width="48" height="5" rx="2.5" transform="rotate(11.6676 250.922 177.822)" fill="white"/>
<rect x="237.372" y="243.438" width="48" height="5" rx="2.5" transform="rotate(11.6676 237.372 243.438)" fill="white"/>
<rect x="0.560735" y="109.59" width="212" height="295" rx="21.5" transform="rotate(-7.46666 0.560735 109.59)" stroke="white"/>
<path opacity="0.5" d="M108.042 110.127L142.868 375.855" stroke="white"/>
<path opacity="0.5" d="M211.805 163.093L21.4326 188.043" stroke="white"/>
<path opacity="0.5" d="M220.511 229.525L30.1392 254.475" stroke="white"/>
<path opacity="0.5" d="M229.218 295.957L38.8458 320.907" stroke="white"/>
<rect x="19.7147" y="128.763" width="48" height="5" rx="2.5" transform="rotate(-7.46666 19.7147 128.763)" fill="white"/>
<rect opacity="0.5" x="21.6639" y="143.636" width="67" height="2" rx="1" transform="rotate(-7.46666 21.6639 143.636)" fill="white"/>
<rect opacity="0.5" x="22.4437" y="149.585" width="67" height="2" rx="1" transform="rotate(-7.46666 22.4437 149.585)" fill="white"/>
<rect opacity="0.5" x="23.2233" y="155.534" width="67" height="2" rx="1" transform="rotate(-7.46666 23.2233 155.534)" fill="white"/>
<rect opacity="0.5" x="24.0031" y="161.484" width="67" height="2" rx="1" transform="rotate(-7.46666 24.0031 161.484)" fill="white"/>
<rect opacity="0.5" x="24.7827" y="167.433" width="67" height="2" rx="1" transform="rotate(-7.46666 24.7827 167.433)" fill="white"/>
<rect opacity="0.5" x="25.5624" y="173.382" width="67" height="2" rx="1" transform="rotate(-7.46666 25.5624 173.382)" fill="white"/>
<rect opacity="0.5" x="30.5005" y="211.06" width="67" height="2" rx="1" transform="rotate(-7.46666 30.5005 211.06)" fill="white"/>
<rect opacity="0.5" x="31.2802" y="217.009" width="67" height="2" rx="1" transform="rotate(-7.46666 31.2802 217.009)" fill="white"/>
<rect opacity="0.5" x="32.0599" y="222.958" width="67" height="2" rx="1" transform="rotate(-7.46666 32.0599 222.958)" fill="white"/>
<rect opacity="0.5" x="32.8396" y="228.907" width="67" height="2" rx="1" transform="rotate(-7.46666 32.8396 228.907)" fill="white"/>
<rect opacity="0.5" x="33.6193" y="234.856" width="67" height="2" rx="1" transform="rotate(-7.46666 33.6193 234.856)" fill="white"/>
<rect opacity="0.5" x="34.399" y="240.805" width="67" height="2" rx="1" transform="rotate(-7.46666 34.399 240.805)" fill="white"/>
<rect opacity="0.5" x="39.2071" y="277.492" width="67" height="2" rx="1" transform="rotate(-7.46666 39.2071 277.492)" fill="white"/>
<rect opacity="0.5" x="39.9868" y="283.441" width="67" height="2" rx="1" transform="rotate(-7.46666 39.9868 283.441)" fill="white"/>
<rect opacity="0.5" x="40.7665" y="289.39" width="67" height="2" rx="1" transform="rotate(-7.46666 40.7665 289.39)" fill="white"/>
<rect opacity="0.5" x="41.5462" y="295.339" width="67" height="2" rx="1" transform="rotate(-7.46666 41.5462 295.339)" fill="white"/>
<rect opacity="0.5" x="42.3259" y="301.288" width="67" height="2" rx="1" transform="rotate(-7.46666 42.3259 301.288)" fill="white"/>
<rect opacity="0.5" x="43.1056" y="307.237" width="67" height="2" rx="1" transform="rotate(-7.46666 43.1056 307.237)" fill="white"/>
<rect opacity="0.5" x="47.9137" y="343.924" width="67" height="2" rx="1" transform="rotate(-7.46666 47.9137 343.924)" fill="white"/>
<rect opacity="0.5" x="48.6934" y="349.873" width="67" height="2" rx="1" transform="rotate(-7.46666 48.6934 349.873)" fill="white"/>
<rect opacity="0.5" x="49.4731" y="355.822" width="67" height="2" rx="1" transform="rotate(-7.46666 49.4731 355.822)" fill="white"/>
<rect opacity="0.5" x="50.2528" y="361.771" width="67" height="2" rx="1" transform="rotate(-7.46666 50.2528 361.771)" fill="white"/>
<rect opacity="0.5" x="51.0325" y="367.72" width="67" height="2" rx="1" transform="rotate(-7.46666 51.0325 367.72)" fill="white"/>
<rect opacity="0.5" x="51.8122" y="373.669" width="67" height="2" rx="1" transform="rotate(-7.46666 51.8122 373.669)" fill="white"/>
<rect opacity="0.5" x="122.799" y="130.382" width="67" height="2" rx="1" transform="rotate(-7.46666 122.799 130.382)" fill="white"/>
<rect opacity="0.5" x="123.579" y="136.331" width="67" height="2" rx="1" transform="rotate(-7.46666 123.579 136.331)" fill="white"/>
<rect opacity="0.5" x="124.358" y="142.28" width="67" height="2" rx="1" transform="rotate(-7.46666 124.358 142.28)" fill="white"/>
<rect opacity="0.5" x="125.138" y="148.229" width="67" height="2" rx="1" transform="rotate(-7.46666 125.138 148.229)" fill="white"/>
<rect opacity="0.5" x="125.918" y="154.178" width="67" height="2" rx="1" transform="rotate(-7.46666 125.918 154.178)" fill="white"/>
<rect opacity="0.5" x="126.698" y="160.127" width="67" height="2" rx="1" transform="rotate(-7.46666 126.698 160.127)" fill="white"/>
<rect opacity="0.5" x="131.636" y="197.805" width="67" height="2" rx="1" transform="rotate(-7.46666 131.636 197.805)" fill="white"/>
<rect opacity="0.5" x="132.415" y="203.754" width="67" height="2" rx="1" transform="rotate(-7.46666 132.415 203.754)" fill="white"/>
<rect opacity="0.5" x="133.195" y="209.703" width="67" height="2" rx="1" transform="rotate(-7.46666 133.195 209.703)" fill="white"/>
<rect opacity="0.5" x="133.975" y="215.652" width="67" height="2" rx="1" transform="rotate(-7.46666 133.975 215.652)" fill="white"/>
<rect opacity="0.5" x="134.754" y="221.601" width="67" height="2" rx="1" transform="rotate(-7.46666 134.754 221.601)" fill="white"/>
<rect opacity="0.5" x="135.534" y="227.551" width="67" height="2" rx="1" transform="rotate(-7.46666 135.534 227.551)" fill="white"/>
<rect opacity="0.5" x="140.342" y="264.237" width="67" height="2" rx="1" transform="rotate(-7.46666 140.342 264.237)" fill="white"/>
<rect opacity="0.5" x="141.122" y="270.186" width="67" height="2" rx="1" transform="rotate(-7.46666 141.122 270.186)" fill="white"/>
<rect opacity="0.5" x="141.902" y="276.135" width="67" height="2" rx="1" transform="rotate(-7.46666 141.902 276.135)" fill="white"/>
<rect opacity="0.5" x="142.681" y="282.084" width="67" height="2" rx="1" transform="rotate(-7.46666 142.681 282.084)" fill="white"/>
<rect opacity="0.5" x="143.461" y="288.033" width="67" height="2" rx="1" transform="rotate(-7.46666 143.461 288.033)" fill="white"/>
<rect opacity="0.5" x="144.241" y="293.982" width="67" height="2" rx="1" transform="rotate(-7.46666 144.241 293.982)" fill="white"/>
<rect opacity="0.5" x="149.049" y="330.669" width="67" height="2" rx="1" transform="rotate(-7.46666 149.049 330.669)" fill="white"/>
<rect opacity="0.5" x="149.829" y="336.618" width="67" height="2" rx="1" transform="rotate(-7.46666 149.829 336.618)" fill="white"/>
<rect opacity="0.5" x="150.608" y="342.567" width="67" height="2" rx="1" transform="rotate(-7.46666 150.608 342.567)" fill="white"/>
<rect opacity="0.5" x="151.388" y="348.516" width="67" height="2" rx="1" transform="rotate(-7.46666 151.388 348.516)" fill="white"/>
<rect opacity="0.5" x="152.168" y="354.465" width="67" height="2" rx="1" transform="rotate(-7.46666 152.168 354.465)" fill="white"/>
<rect opacity="0.5" x="152.947" y="360.414" width="67" height="2" rx="1" transform="rotate(-7.46666 152.947 360.414)" fill="white"/>
<rect x="28.5513" y="196.187" width="48" height="5" rx="2.5" transform="rotate(-7.46666 28.5513 196.187)" fill="white"/>
<rect x="37.2579" y="262.619" width="48" height="5" rx="2.5" transform="rotate(-7.46666 37.2579 262.619)" fill="white"/>
<rect x="45.9645" y="329.051" width="48" height="5" rx="2.5" transform="rotate(-7.46666 45.9645 329.051)" fill="white"/>
<rect x="120.85" y="115.509" width="48" height="5" rx="2.5" transform="rotate(-7.46666 120.85 115.509)" fill="white"/>
<rect x="129.686" y="182.932" width="48" height="5" rx="2.5" transform="rotate(-7.46666 129.686 182.932)" fill="white"/>
<rect x="138.393" y="249.364" width="48" height="5" rx="2.5" transform="rotate(-7.46666 138.393 249.364)" fill="white"/>
<rect x="147.1" y="315.796" width="48" height="5" rx="2.5" transform="rotate(-7.46666 147.1 315.796)" fill="white"/>
</svg>
