<svg width="248" height="320" viewBox="0 0 248 320" fill="none" xmlns="http://www.w3.org/2000/svg">
<rect x="0.556715" y="26.1552" width="212" height="295" rx="21.5" transform="rotate(-6.93524 0.556715 26.1552)" stroke="white"/>
<path d="M57.3181 77.3815L39.8468 79.5066L39.615 77.6007L48.5447 65.8767C51.156 62.3892 52.3329 59.5865 52.0753 57.4688C51.8564 55.6688 51.0985 54.2969 49.8017 53.3532C48.5314 52.4064 47.0095 52.0408 45.2359 52.2565C42.1123 52.6365 40.0725 54.3083 39.1167 57.2721L37.1995 56.4173C37.8173 54.6498 38.801 53.2407 40.1507 52.1901C41.5236 51.1097 43.1366 50.4568 44.9896 50.2314C47.2397 49.9578 49.259 50.4374 51.0477 51.6705C52.8628 52.9003 53.9201 54.7461 54.2195 57.208C54.403 58.7169 54.1482 60.2657 53.4549 61.8543C52.7882 63.4398 51.6891 65.2255 50.1577 67.2117L42.6183 77.1145L57.0717 75.3564L57.3181 77.3815ZM79.6957 64.2635L88.8435 73.5468L86.4214 73.8414L78.6579 66.0015L73.0003 75.4739L70.5782 75.7685L77.2783 64.5978L68.6397 55.8569L71.0618 55.5623L78.2764 62.8646L83.5696 54.0409L85.9521 53.7511L79.6957 64.2635ZM97.9744 46.7683L104.937 43.3829L106.723 43.1656L110.104 70.9607L108 71.2167L104.899 45.7246L98.7128 48.5321L97.9744 46.7683ZM140.87 50.0528L124.59 52.0331L124.358 50.1271L140.638 48.1469L140.87 50.0528ZM141.836 57.9943L125.556 59.9745L125.324 58.0686L141.604 56.0883L141.836 57.9943ZM175.238 63.038L157.767 65.1632L157.535 63.2572L166.465 51.5332C169.076 48.0457 170.253 45.2431 169.995 43.1254C169.776 41.3253 169.018 39.9534 167.722 39.0098C166.451 38.0629 164.929 37.6973 163.156 37.9131C160.032 38.293 157.992 39.9649 157.037 42.9286L155.119 42.0739C155.737 40.3063 156.721 38.8973 158.071 37.8466C159.444 36.7662 161.056 36.1134 162.909 35.888C165.16 35.6143 167.179 36.094 168.968 37.327C170.783 38.5568 171.84 40.4027 172.139 42.8645C172.323 44.3734 172.068 45.9222 171.375 47.5109C170.708 49.0963 169.609 50.8821 168.078 52.8682L160.538 62.771L174.992 61.0129L175.238 63.038Z" fill="white"/>
<path d="M66.3181 146.589L48.8468 148.714L48.615 146.808L57.5447 135.084C60.156 131.597 61.3329 128.794 61.0753 126.676C60.8564 124.876 60.0985 123.504 58.8017 122.561C57.5314 121.614 56.0095 121.248 54.2359 121.464C51.1123 121.844 49.0725 123.516 48.1167 126.48L46.1995 125.625C46.8173 123.857 47.801 122.448 49.1507 121.398C50.5236 120.317 52.1366 119.664 53.9896 119.439C56.2397 119.165 58.259 119.645 60.0477 120.878C61.8628 122.108 62.9201 123.954 63.2195 126.416C63.403 127.924 63.1482 129.473 62.4549 131.062C61.7882 132.647 60.6891 134.433 59.1577 136.419L51.6183 146.322L66.0717 144.564L66.3181 146.589ZM88.6957 133.471L97.8435 142.754L95.4214 143.049L87.6579 135.209L82.0003 144.681L79.5782 144.976L86.2783 133.805L77.6397 125.064L80.0618 124.77L87.2764 132.072L92.5696 123.248L94.9521 122.959L88.6957 133.471ZM128.555 139.019L111.083 141.144L110.852 139.238L119.781 127.514C122.393 124.026 123.569 121.224 123.312 119.106C123.093 117.306 122.335 115.934 121.038 114.99C119.768 114.044 118.246 113.678 116.472 113.894C113.349 114.274 111.309 115.946 110.353 118.909L108.436 118.055C109.054 116.287 110.038 114.878 111.387 113.827C112.76 112.747 114.373 112.094 116.226 111.869C118.476 111.595 120.496 112.075 122.284 113.308C124.099 114.538 125.157 116.383 125.456 118.845C125.64 120.354 125.385 121.903 124.692 123.492C124.025 125.077 122.926 126.863 121.394 128.849L113.855 138.752L128.308 136.994L128.555 139.019ZM157.626 118.317L141.345 120.297L141.114 118.391L157.394 116.411L157.626 118.317ZM158.591 126.258L142.311 128.239L142.08 126.333L158.36 124.353L158.591 126.258ZM190.049 123.601L193.623 123.166L193.864 125.151L190.291 125.586L191.001 131.423L188.896 131.679L188.186 125.842L173.216 127.663L172.975 125.677L181.108 104.42L183.411 104.14L175.318 125.392L187.945 123.857L186.882 115.121L188.987 114.865L190.049 123.601Z" fill="white"/>
<path d="M79.3181 213.468L61.8468 215.594L61.615 213.688L70.5447 201.964C73.156 198.476 74.3329 195.673 74.0753 193.556C73.8564 191.756 73.0985 190.384 71.8017 189.44C70.5314 188.493 69.0095 188.128 67.2359 188.343C64.1123 188.723 62.0725 190.395 61.1167 193.359L59.1995 192.504C59.8173 190.737 60.801 189.328 62.1507 188.277C63.5236 187.197 65.1366 186.544 66.9896 186.318C69.2397 186.045 71.259 186.524 73.0477 187.757C74.8628 188.987 75.9201 190.833 76.2195 193.295C76.403 194.804 76.1482 196.353 75.4549 197.941C74.7882 199.527 73.6891 201.312 72.1577 203.299L64.6183 213.201L79.0717 211.443L79.3181 213.468ZM101.696 200.35L110.844 209.634L108.421 209.928L100.658 202.088L95.0003 211.561L92.5782 211.855L99.2783 200.685L90.6397 191.944L93.0618 191.649L100.276 198.952L105.57 190.128L107.952 189.838L101.696 200.35ZM137.462 180.204L131.916 190.59C134.274 190.545 136.295 191.145 137.978 192.391C139.66 193.637 140.647 195.451 140.936 197.834C141.252 200.428 140.616 202.601 139.029 204.352C137.439 206.076 135.361 207.095 132.793 207.407C130.702 207.661 128.805 207.422 127.104 206.689C125.427 205.926 124.157 204.764 123.296 203.203L124.917 201.958C125.588 203.274 126.59 204.226 127.924 204.816C129.259 205.406 130.799 205.595 132.546 205.382C134.638 205.128 136.261 204.339 137.416 203.017C138.595 201.664 139.067 200.022 138.832 198.09C138.594 196.131 137.729 194.651 136.237 193.651C134.772 192.647 132.993 192.272 130.902 192.527L130.897 192.487L130.862 192.531L130.307 192.599L129.224 191.32L135.04 180.499L121.46 182.151L121.219 180.165L137.221 178.219L137.462 180.204ZM171.091 185.14L154.811 187.12L154.579 185.214L170.859 183.234L171.091 185.14ZM172.057 193.081L155.777 195.062L155.545 193.156L171.825 191.175L172.057 193.081ZM194.748 181.295C197.448 180.967 199.79 181.555 201.773 183.06C203.729 184.568 204.87 186.659 205.195 189.332C205.52 192.006 204.914 194.309 203.376 196.243C201.862 198.146 199.728 199.265 196.975 199.6C194.222 199.935 191.882 199.36 189.955 197.875C187.999 196.367 186.858 194.276 186.533 191.603C186.278 189.511 186.622 187.589 187.564 185.836L195.248 171.161L197.631 170.871L191.783 182.099C192.78 181.682 193.769 181.414 194.748 181.295ZM203.091 189.588C202.833 187.471 201.962 185.831 200.477 184.668C198.993 183.505 197.165 183.056 194.994 183.32C192.824 183.584 191.157 184.459 189.995 185.943C188.855 187.398 188.416 189.198 188.677 191.342C188.931 193.433 189.801 195.06 191.285 196.222C192.77 197.385 194.584 197.836 196.728 197.575C198.873 197.314 200.526 196.442 201.689 194.957C202.878 193.469 203.345 191.68 203.091 189.588Z" fill="white"/>
<path d="M90.3181 282.71L72.8468 284.835L72.615 282.929L81.5447 271.205C84.156 267.718 85.3329 264.915 85.0753 262.797C84.8564 260.997 84.0985 259.625 82.8017 258.682C81.5314 257.735 80.0095 257.369 78.2359 257.585C75.1123 257.965 73.0725 259.637 72.1167 262.6L70.1995 261.746C70.8173 259.978 71.801 258.569 73.1507 257.518C74.5236 256.438 76.1366 255.785 77.9896 255.56C80.2397 255.286 82.259 255.766 84.0477 256.999C85.8628 258.229 86.9201 260.075 87.2195 262.536C87.403 264.045 87.1482 265.594 86.4549 267.183C85.7882 268.768 84.6891 270.554 83.1577 272.54L75.6183 282.443L90.0717 280.685L90.3181 282.71ZM112.696 269.592L121.844 278.875L119.421 279.17L111.658 271.33L106 280.802L103.578 281.097L110.278 269.926L101.64 261.185L104.062 260.891L111.276 268.193L116.57 259.369L118.952 259.079L112.696 269.592ZM150.61 267.438L154.184 267.003L154.426 268.989L150.852 269.423L151.562 275.26L149.457 275.516L148.747 269.679L133.778 271.5L133.536 269.515L141.669 248.257L143.972 247.977L135.879 269.23L148.506 267.694L147.443 258.958L149.548 258.702L150.61 267.438ZM183.448 254.216L167.168 256.196L166.936 254.29L183.216 252.31L183.448 254.216ZM184.414 262.158L168.134 264.138L167.902 262.232L184.182 260.252L184.414 262.158ZM212.057 253.315C213.666 253.737 214.984 254.517 216.008 255.655C217.057 256.763 217.676 258.098 217.866 259.66C218.165 262.122 217.54 264.159 215.99 265.771C214.463 267.354 212.336 268.311 209.61 268.643C206.883 268.974 204.589 268.555 202.728 267.385C200.836 266.191 199.741 264.363 199.441 261.901C199.251 260.339 199.519 258.897 200.245 257.573C200.993 256.219 202.098 255.144 203.56 254.349C202.212 253.868 201.114 253.128 200.268 252.13C199.418 251.105 198.907 249.891 198.737 248.488C198.447 246.106 199.017 244.169 200.448 242.679C201.928 241.156 203.82 240.254 206.123 239.974C208.426 239.694 210.465 240.117 212.241 241.245C214.013 242.345 215.045 244.087 215.334 246.469C215.505 247.872 215.301 249.173 214.721 250.372C214.138 251.544 213.25 252.525 212.057 253.315ZM200.841 248.232C201.041 249.873 201.771 251.128 203.032 251.995C204.315 252.833 205.871 253.141 207.697 252.919C209.524 252.696 210.947 252.026 211.966 250.909C213.008 249.761 213.429 248.367 213.23 246.725C213.024 245.031 212.292 243.764 211.035 242.923C209.777 242.082 208.222 241.774 206.369 241.999C204.516 242.225 203.08 242.896 202.061 244.014C201.042 245.132 200.635 246.538 200.841 248.232ZM201.586 261.64C201.808 263.467 202.617 264.819 204.013 265.697C205.409 266.575 207.193 266.882 209.364 266.618C211.534 266.354 213.192 265.628 214.337 264.441C215.482 263.254 215.944 261.748 215.721 259.921C215.499 258.094 214.692 256.755 213.299 255.904C211.902 255.026 210.119 254.719 207.948 254.983C205.778 255.247 204.12 255.973 202.975 257.16C201.826 258.32 201.363 259.814 201.586 261.64Z" fill="white"/>
<path opacity="0.5" d="M211.295 81.6147L20.7 104.798" stroke="white"/>
<path opacity="0.5" d="M219.385 148.125L28.7901 171.308" stroke="white"/>
<path opacity="0.5" d="M227.475 214.635L36.8802 237.818" stroke="white"/>
</svg>
