<svg width="222" height="57" viewBox="0 0 222 57" fill="none" xmlns="http://www.w3.org/2000/svg">
<path d="M73.7944 38.3088C75.4625 39.9711 77.6294 40.8022 80.7784 40.8022C87.435 40.8022 94.1383 35.2412 94.1383 25.1015C94.1383 16.0649 87.9182 11.6826 82.3217 11.6826C76.9434 11.6826 74.8389 14.6596 73.7788 16.1254V13.7982C73.7788 13.2391 73.28 12.2417 72.1575 12.2417C69.1956 12.2417 65.2203 12.2417 65.2203 12.2417V49.7179C65.2203 50.7606 66.1089 51.2895 66.826 51.2895H73.7632V38.3088H73.7944ZM73.7944 23.0161C74.2933 21.6108 76.0704 18.4525 79.8898 18.4525C82.275 18.4525 85.5331 19.3441 85.5331 25.3131C85.5331 31.8714 81.589 34.3346 78.3153 34.3346C75.8366 34.3346 74.3556 33.3221 73.7944 32.8234V23.0161Z" fill="#8FC641"/>
<path d="M112.377 18.4529C108.293 18.4529 106.079 21.4298 106.079 26.4015C106.079 31.3731 108.246 34.3501 112.377 34.3501C116.508 34.3501 118.675 31.4487 118.675 26.4015C118.675 21.3543 116.461 18.4529 112.377 18.4529ZM127.249 26.205C127.249 34.8185 121.434 40.7875 112.439 40.7875C103.444 40.7875 97.6296 34.6976 97.6296 26.205C97.6296 17.7124 103.413 11.6226 112.439 11.6226C121.466 11.6226 127.249 17.5915 127.249 26.205Z" fill="#8FC641"/>
<path d="M145.566 18.4226C141.482 18.4226 139.268 21.3996 139.268 26.3712C139.268 31.3428 141.435 34.3198 145.566 34.3198C149.697 34.3198 151.864 31.4184 151.864 26.3712C151.88 21.324 149.666 18.4226 145.566 18.4226ZM160.454 26.1748C160.454 34.7882 154.639 40.7572 145.644 40.7572C136.649 40.7572 130.834 34.6673 130.834 26.1748C130.834 17.6822 136.618 11.5923 145.644 11.5923C154.67 11.5923 160.454 17.5613 160.454 26.1748Z" fill="#8FC641"/>
<path d="M16.4409 40.7265C26.839 40.7265 30.6895 32.7931 26.7142 32.4757C25.6386 32.3851 24.7032 34.1984 18.904 34.1984C12.8242 34.1984 10.33 31.2215 9.95583 28.9397H26.1063C28.1952 28.9397 29.3332 27.1414 29.6294 26.0081C30.9077 21.0666 28.2264 11.6069 16.4409 11.6069C5.21671 11.6069 1.24146 20.2506 1.24146 26.4765C1.24146 32.7628 5.76233 40.7265 16.4409 40.7265ZM16.6592 18.1955C22.739 18.1955 22.6455 23.6658 21.8036 23.6658H9.92465C9.92465 21.9884 12.2163 18.1955 16.6592 18.1955Z" fill="#8FC641"/>
<path d="M34.8674 31.1921V12.2424H48.8509C54.6813 12.2424 59.358 15.1136 59.358 20.0701C59.358 23.304 57.347 24.8755 56.0687 25.4951C57.5029 25.9787 60.6987 27.656 60.6987 31.8117C60.6987 37.1913 55.9908 40.1078 49.7239 40.1078H48.4923H43.4726C38.7647 40.1078 34.8674 38.4304 34.8674 31.1921ZM52.3117 31.7059C52.3117 30.089 51.2672 28.9405 49.4433 28.9405H43.4259V31.6303C43.4259 32.8241 44.3144 34.2597 46.0448 34.2597H49.6771C50.8775 34.2748 52.3117 33.2472 52.3117 31.7059ZM51.3296 20.9617C51.3452 20.1003 50.6748 18.3776 48.3676 18.4079H43.4259V23.6666H48.3676C50.0513 23.6666 51.3296 22.6693 51.3296 20.9617Z" fill="#8FC641"/>
<path d="M202.437 38.6715V18.4072H195.156C194.252 18.4072 193.551 17.7121 193.551 16.9414V12.272H218.26C218.883 12.272 219.865 12.7253 219.865 13.8284V18.3921H210.979V40.1222H204.042C202.967 40.1373 202.437 39.2307 202.437 38.6715Z" fill="#8FC641"/>
<path d="M164.632 38.6262V12.272H181.687C186.395 12.272 190.292 13.9493 190.292 21.1877V40.1373H183.324C182.622 40.1373 181.734 39.6084 181.734 38.6111V21.0366C181.718 19.8125 180.752 18.4072 179.006 18.4072H173.144V40.1373H166.269C165.131 40.1373 164.632 39.1853 164.632 38.6262Z" fill="#8FC641"/>
</svg>
